<?xml version="1.0" encoding="UTF-8" standalone="no"?>
<svg
   xmlns:dc="http://purl.org/dc/elements/1.1/"
   xmlns:cc="http://creativecommons.org/ns#"
   xmlns:rdf="http://www.w3.org/1999/02/22-rdf-syntax-ns#"
   xmlns:svg="http://www.w3.org/2000/svg"
   xmlns="http://www.w3.org/2000/svg"
   xmlns:sodipodi="http://sodipodi.sourceforge.net/DTD/sodipodi-0.dtd"
   xmlns:inkscape="http://www.inkscape.org/namespaces/inkscape"
   viewBox="0 0 114.55853 49.623749"
   height="49.623749"
   width="114.55853"
   xml:space="preserve"
   version="1.1"
   id="svg2"
   inkscape:version="0.92.4 (5da689c313, 2019-01-14)"
   sodipodi:docname="cyclists-dismount.svg"
   inkscape:export-filename="C:\Documents and Settings\ALEX\My Documents\Downloads\DFT\Traffic Signs Manual\wetransfer-0f7164\Chapter 3 2008\Section 17\Traffic-signs-manual-chapter-3-diagram 966  (2008).png"
   inkscape:export-xdpi="96"
   inkscape:export-ydpi="96"><sodipodi:namedview
     pagecolor="#ffffff"
     bordercolor="#666666"
     borderopacity="1"
     objecttolerance="10"
     gridtolerance="10"
     guidetolerance="10"
     inkscape:pageopacity="1"
     inkscape:pageshadow="2"
     inkscape:window-width="1920"
     inkscape:window-height="1015"
     id="namedview32"
     showgrid="false"
     inkscape:zoom="5.6568543"
     inkscape:cx="72.613085"
     inkscape:cy="22.419599"
     inkscape:window-x="0"
     inkscape:window-y="0"
     inkscape:window-maximized="1"
     inkscape:current-layer="g12"
     inkscape:pagecheckerboard="true" /><metadata
     id="metadata8"><rdf:RDF><cc:Work
         rdf:about=""><dc:format>image/svg+xml</dc:format><dc:type
           rdf:resource="http://purl.org/dc/dcmitype/StillImage" /><dc:title></dc:title></cc:Work></rdf:RDF></metadata><defs
     id="defs6">
</defs><g
     transform="matrix(1.25,0,0,-1.25,-79.725795,51.559455)"
     id="g10"><g
       transform="scale(0.1)"
       id="g12"><g
         id="g3401"><g
           id="g3377"><path
             d="m 1499.96,409.641 c 28.44,0 51.48,-23.039 51.48,-51.121 V 69.4414 c 0,-28.082 -23.04,-51.1211 -51.48,-51.1211 H 692.121 v 0 c -28.441,0 -51.48,23.0391 -51.48,51.1211 V 358.52 c 0,28.082 23.039,51.121 51.48,51.121 h 807.839"
             style="fill:#0079c1;fill-opacity:1;fill-rule:evenodd;stroke:none"
             id="path3370"
             inkscape:connector-curvature="0" /><g
             id="g3373"><path
               id="path14"
               transform="matrix(8,0,0,-8,0,440)"
               d="m 86.515625,3.7949219 c -3.555125,0 -6.435547,2.880375 -6.435547,6.3906251 v 36.134765 c 0,3.51025 2.880422,6.390626 6.435547,6.390626 H 187.49414 c 3.555,0 6.43555,-2.880376 6.43555,-6.390626 V 10.185547 c 0,-3.5102501 -2.88055,-6.3906251 -6.43555,-6.3906251 z m -0.04492,3.2402343 h 0.04297 100.980465 c 1.8,0 3.24024,1.3955157 3.24024,3.1503908 v 36.134765 c 0,1.754888 -1.44024,3.195313 -3.24024,3.195313 H 86.515625 c -1.80025,0 -3.240234,-1.440425 -3.240234,-3.195313 V 10.185547 c 0,-1.7392501 1.430687,-3.1503908 3.195312,-3.1503908 z"
               style="fill:#ffffff;fill-opacity:1;fill-rule:evenodd;stroke:none"
               inkscape:connector-curvature="0" /><path
               d="m 1499.96,409.641 c 28.44,0 51.48,-23.039 51.48,-51.121 V 69.4414 c 0,-28.082 -23.04,-51.1211 -51.48,-51.1211 H 692.121 v 0 c -28.441,0 -51.48,23.0391 -51.48,51.1211 V 358.52 c 0,28.082 23.039,51.121 51.48,51.121 z"
               style="fill:none;stroke:#1478c7;stroke-width:5.66928005;stroke-linecap:butt;stroke-linejoin:round;stroke-miterlimit:10;stroke-dasharray:none;stroke-opacity:1"
               id="path16"
               inkscape:connector-curvature="0" /></g></g><g
           id="g3383"><path
             id="path20"
             style="fill:#ffffff;fill-opacity:1;fill-rule:evenodd;stroke:none"
             d="m 855.199,307.039 -15.121,-6.84 v 0 c -4.316,8.641 -11.879,16.563 -23.758,16.563 -15.121,0 -28.8,-14.043 -28.8,-33.84 0,-20.16 11.16,-36.363 28.8,-36.363 17.641,0 22.68,14.761 23.399,16.562 v 0 l 15.48,-7.199 v 0 c -3.597,-6.84 -14.039,-23.762 -39.238,-23.762 -24.84,0 -45.359,18 -45.359,49.32 0,33.84 23.757,49.68 44.636,49.68 20.883,0 33.481,-11.519 39.961,-24.121"
             inkscape:connector-curvature="0" /><path
             id="path22"
             style="fill:#ffffff;fill-opacity:1;fill-rule:evenodd;stroke:none"
             d="m 1136.36,234.32 h 16.9219 v 95.3984 H 1136.36 Z"
             inkscape:connector-curvature="0" /><path
             id="path24"
             style="fill:#ffffff;fill-opacity:1;fill-rule:evenodd;stroke:none"
             d="m 1079.12,295.879 v 33.84 h -16.2 V 234.32 h 53.64 v 15.121 h -37.44 v 34.918"
             inkscape:connector-curvature="0" /><path
             id="path26"
             style="fill:#ffffff;fill-opacity:1;fill-rule:evenodd;stroke:none"
             d="m 1253.36,316.039 -12.6,-9.719 v 0 c -5.76,5.399 -12.24,11.16 -23.04,11.16 -10.8,0 -18,-6.121 -18,-12.96 -0.36,-9.719 6.84,-11.52 21.24,-14.04 9.72,-1.8 17.28,-2.519 24.12,-8.281 6.48,-5.039 10.08,-12.238 10.08,-20.519 0,-8.641 -5.4,-29.52 -36.36,-29.52 -24.12,0 -36,13.32 -40.32,18.36 v 0 l 14.04,10.441 v 0 c 6.12,-9.359 17.28,-14.402 24.84,-14.402 7.56,0 20.52,2.882 20.52,14.761 0,11.879 -14.04,12.602 -27.72,15.121 -13.68,2.161 -27.72,9 -27.72,27.36 0,18.719 18.36,27.719 35.28,27.719 16.92,0 28.44,-5.758 35.64,-15.481"
             inkscape:connector-curvature="0" /><path
             id="path28"
             style="fill:#ffffff;fill-opacity:1;fill-rule:evenodd;stroke:none"
             d="m 1300.88,234.32 h 7.56 v 80.282 h 25.92 v 15.117 h -68.4 v -15.117 h 25.56 V 234.32 h 7.2"
             inkscape:connector-curvature="0" /><path
             id="path30"
             style="fill:#ffffff;fill-opacity:1;fill-rule:evenodd;stroke:none"
             d="m 908.121,234.32 h 4.32 v 37.078 l 30.598,58.321 h -18 l -21.238,-40.321 -21.602,40.321 h -17.64 L 895.16,271.398 V 234.32 h 8.281"
             inkscape:connector-curvature="0" /><path
             id="path32"
             style="fill:#ffffff;fill-opacity:1;fill-rule:evenodd;stroke:none"
             d="m 1040.24,307.039 -15.12,-6.84 v 0 c -4.32,8.641 -11.88,16.563 -23.76,16.563 -15.122,0 -28.801,-14.043 -28.801,-33.84 0,-20.16 10.8,-36.363 28.801,-36.363 17.64,0 22.68,14.761 23.4,16.562 v 0 l 15.48,-7.199 v 0 c -3.96,-6.84 -14.04,-23.762 -39.24,-23.762 -24.84,0 -45.359,18 -45.359,49.32 0,33.84 23.398,49.68 44.639,49.68 20.88,0 33.48,-11.519 39.96,-24.121"
             inkscape:connector-curvature="0" /><path
             id="path34"
             style="fill:#ffffff;fill-opacity:1;fill-rule:evenodd;stroke:none"
             d="m 1421.48,316.039 -12.96,-9.719 v 0 c -5.4,5.399 -12.24,11.16 -22.68,11.16 -10.8,0 -18,-6.121 -18,-12.96 -0.36,-9.719 6.84,-11.52 21.24,-14.04 9.72,-1.8 16.92,-2.519 24.12,-8.281 6.48,-5.039 10.08,-12.238 10.08,-20.519 0,-8.641 -5.76,-29.52 -36.36,-29.52 -24.48,0 -36.36,13.32 -40.32,18.36 v 0 l 14.04,10.441 v 0 c 6.12,-9.359 16.92,-14.402 24.84,-14.402 7.56,0 20.52,2.882 20.52,14.761 0,11.879 -14.04,12.602 -27.72,15.121 -13.68,2.161 -27.72,9 -27.72,27.36 0,18.719 18.36,27.719 35.28,27.719 16.56,0 28.44,-5.758 35.64,-15.481"
             inkscape:connector-curvature="0" /><path
             id="path36"
             style="fill:#ffffff;fill-opacity:1;fill-rule:evenodd;stroke:none"
             d="M 764.121,178.879 H 742.16 V 113 h 21.602 v 0 c 11.519,0 22.316,11.16 22.316,32.039 0,21.242 -10.078,33.84 -21.957,33.84 z m 1.801,14.762 H 725.238 V 98.2383 h 40.684 v 0.0039 c 19.797,0 36.719,19.0778 37.078,47.5198 0,28.437 -18,47.879 -37.078,47.879"
             inkscape:connector-curvature="0" /><path
             id="path38"
             style="fill:#ffffff;fill-opacity:1;fill-rule:evenodd;stroke:none"
             d="M 1065.44,134.242 V 98.2422 h -16.2 v 71.6368 l -29.88,-37.797 -29.52,37.797 V 98.2422 h -16.199 v 95.3988 h 19.078 l 26.641,-35.282 27,35.282 h 19.08 v -23.762"
             inkscape:connector-curvature="0" /><path
             id="path40"
             style="fill:#ffffff;fill-opacity:1;fill-rule:evenodd;stroke:none"
             d="m 1391.6,143.961 v 49.68 h -16.56 v -68.762 l -45.36,68.762 h -18.72 V 98.2422 h 16.2 v 69.1168 l 45,-69.1168 h 19.44 V 126.68"
             inkscape:connector-curvature="0" /><path
             id="path42"
             style="fill:#ffffff;fill-opacity:1;fill-rule:evenodd;stroke:none"
             d="m 1137.8,195.082 c 24.84,0 46.08,-20.16 46.08,-48.961 0,-28.801 -20.16,-50.039 -46.08,-50.039 v 0 c -25.92,0 -45.72,21.238 -45.72,50.039 0,28.801 20.88,48.961 45.72,48.961 z m 0,-14.762 c 19.44,0 28.8,-19.078 28.8,-34.558 0,-15.121 -9,-34.922 -28.8,-34.922 v 0 c -19.44,0 -28.8,19.801 -28.8,34.922 0,15.48 9.72,34.558 28.8,34.558"
             inkscape:connector-curvature="0" /><path
             id="path44"
             style="fill:#ffffff;fill-opacity:1;fill-rule:evenodd;stroke:none"
             d="m 1278.56,132.441 v 61.2 h -16.92 v -61.2 c 0,-11.882 -8.28,-21.601 -20.52,-21.601 -12.24,0 -20.16,10.082 -20.16,21.601 v 61.2 h -16.56 v -61.2 c 0,-18 14.76,-36.359 36.72,-36.359 21.96,0 37.44,18.359 37.44,36.359"
             inkscape:connector-curvature="0" /><path
             id="path46"
             style="fill:#ffffff;fill-opacity:1;fill-rule:evenodd;stroke:none"
             d="m 830,98.2383 h 16.918 v 95.4023 H 830 Z"
             inkscape:connector-curvature="0" /><path
             id="path48"
             style="fill:#ffffff;fill-opacity:1;fill-rule:evenodd;stroke:none"
             d="m 947,179.961 -12.961,-9.719 v 0 c -5.398,5.399 -12.238,11.16 -23.039,11.16 -10.441,0 -17.641,-6.121 -18,-12.961 0,-9.359 7.199,-11.519 21.238,-14.039 10.082,-1.8 17.282,-2.523 24.481,-8.281 6.48,-5.039 10.082,-12.242 10.082,-20.519 0,-8.641 -5.762,-29.52 -36.36,-29.52 -24.48,0 -36.363,13.32 -40.679,18.359 v 0 l 14.398,10.801 v 0 c 6.121,-9.722 16.918,-14.762 24.481,-14.762 7.918,0 20.879,2.879 20.879,14.762 0,11.879 -14.399,12.598 -27.719,15.117 -13.68,2.161 -27.723,9 -27.723,27.36 0,18.722 18.363,27.722 34.922,27.722 16.922,0 28.801,-5.761 36,-15.48"
             inkscape:connector-curvature="0" /><path
             id="path50"
             style="fill:#ffffff;fill-opacity:1;fill-rule:evenodd;stroke:none"
             d="m 1446.32,98.2422 h 7.56 V 178.52 h 25.92 v 15.121 h -68.4 V 178.52 h 25.56 V 98.2422 h 7.2"
             inkscape:connector-curvature="0" /></g></g></g></g></svg>