<?xml version="1.0" encoding="UTF-8" standalone="no"?>
<svg
   xmlns:dc="http://purl.org/dc/elements/1.1/"
   xmlns:cc="http://creativecommons.org/ns#"
   xmlns:rdf="http://www.w3.org/1999/02/22-rdf-syntax-ns#"
   xmlns:svg="http://www.w3.org/2000/svg"
   xmlns="http://www.w3.org/2000/svg"
   viewBox="0 0 37.809334 37.806667"
   height="37.806667"
   width="37.809334"
   xml:space="preserve"
   id="svg3732"
   version="1.1"><metadata
     id="metadata3738"><rdf:RDF><cc:Work
         rdf:about=""><dc:format>image/svg+xml</dc:format><dc:type
           rdf:resource="http://purl.org/dc/dcmitype/StillImage" /><dc:title></dc:title></cc:Work></rdf:RDF></metadata><defs
     id="defs3736"><clipPath
       id="clipPath3918"
       clipPathUnits="userSpaceOnUse"><path
         id="path3916"
         d="m 28.347,410.892 h 36.85 v 65.197 h -36.85 z" /></clipPath><clipPath
       id="clipPath4206"
       clipPathUnits="userSpaceOnUse"><path
         id="path4204"
         d="m 81.386,359.024 h 32.081 V 387.36 H 81.386 Z" /></clipPath><clipPath
       id="clipPath4234"
       clipPathUnits="userSpaceOnUse"><path
         id="path4232"
         d="m 81.148,357.603 h 32.557 v 32.556 H 81.148 Z" /></clipPath><clipPath
       id="clipPath4252"
       clipPathUnits="userSpaceOnUse"><path
         id="path4250"
         d="m 253.862,357.799 h 30.931 v 30.931 h -30.931 z" /></clipPath><clipPath
       id="clipPath4276"
       clipPathUnits="userSpaceOnUse"><path
         id="path4274"
         d="m 255.027,298.044 h 28.327 v 28.309 h -28.327 z" /></clipPath><clipPath
       id="clipPath4288"
       clipPathUnits="userSpaceOnUse"><path
         id="path4286"
         d="m 253.6,296.608 h 31.18 v 31.181 H 253.6 Z" /></clipPath><clipPath
       id="clipPath4308"
       clipPathUnits="userSpaceOnUse"><path
         id="path4306"
         d="m 145.289,297.948 h 28.343 v 28.333 h -28.343 z" /></clipPath><clipPath
       id="clipPath4320"
       clipPathUnits="userSpaceOnUse"><path
         id="path4318"
         d="m 143.994,296.44 h 30.933 v 31.348 h -30.933 z" /></clipPath><clipPath
       id="clipPath4356"
       clipPathUnits="userSpaceOnUse"><path
         id="path4354"
         d="m 144.05,357.617 h 31.18 v 31.181 h -31.18 z" /></clipPath><clipPath
       id="clipPath4392"
       clipPathUnits="userSpaceOnUse"><path
         id="path4390"
         d="m 205.87,296.554 h 31.334 v 31.333 H 205.87 Z" /></clipPath><clipPath
       id="clipPath4420"
       clipPathUnits="userSpaceOnUse"><path
         id="path4418"
         d="m 81.918,148.179 h 31.181 V 179.36 H 81.918 Z" /></clipPath><clipPath
       id="clipPath4444"
       clipPathUnits="userSpaceOnUse"><path
         id="path4442"
         d="m 144.085,148.179 h 31.181 v 31.181 h -31.181 z" /></clipPath><clipPath
       id="clipPath4468"
       clipPathUnits="userSpaceOnUse"><path
         id="path4466"
         d="m 207.49,149.628 h 28.283 v 28.284 H 207.49 Z" /></clipPath><clipPath
       id="clipPath4480"
       clipPathUnits="userSpaceOnUse"><path
         id="path4478"
         d="m 206.041,148.179 h 31.181 v 31.181 h -31.181 z" /></clipPath><clipPath
       id="clipPath4512"
       clipPathUnits="userSpaceOnUse"><path
         id="path4510"
         d="m 27.838,277.968 h 37.623 v 55.495 H 27.838 Z" /></clipPath><clipPath
       id="clipPath4578"
       clipPathUnits="userSpaceOnUse"><path
         id="path4576"
         d="m 32.292,126.022 h 30.367 v 51.632 H 32.292 Z" /></clipPath><clipPath
       id="clipPath4594"
       clipPathUnits="userSpaceOnUse"><path
         id="path4592"
         d="m 32.292,126.022 h 30.367 v 51.632 H 32.292 Z" /></clipPath><clipPath
       id="clipPath4610"
       clipPathUnits="userSpaceOnUse"><path
         id="path4608"
         d="M 30.373,124.967 H 63.2 v 55.118 H 30.373 Z" /></clipPath><clipPath
       id="clipPath4776"
       clipPathUnits="userSpaceOnUse"><path
         id="path4774"
         d="m 32.292,126.022 h 30.367 v 51.632 H 32.292 Z" /></clipPath><clipPath
       id="clipPath4794"
       clipPathUnits="userSpaceOnUse"><path
         id="path4792"
         d="M 30.373,124.967 H 63.2 v 55.118 H 30.373 Z" /></clipPath><clipPath
       id="clipPath4814"
       clipPathUnits="userSpaceOnUse"><path
         id="path4812"
         d="m 81.663,296.758 h 31.556 v 31.556 H 81.663 Z" /></clipPath><clipPath
       id="clipPath4834"
       clipPathUnits="userSpaceOnUse"><path
         id="path4832"
         d="m 81.94,216.969 h 31.181 v 31.18 H 81.94 Z" /></clipPath><clipPath
       id="clipPath5006"
       clipPathUnits="userSpaceOnUse"><path
         id="path5004"
         d="m 205.897,216.969 h 31.181 v 31.18 h -31.181 z" /></clipPath><clipPath
       id="clipPath5074"
       clipPathUnits="userSpaceOnUse"><path
         id="path5072"
         d="m 253.701,216.969 h 31.181 v 31.18 h -31.181 z" /></clipPath><clipPath
       id="clipPath5118"
       clipPathUnits="userSpaceOnUse"><path
         id="path5116"
         d="m 31.221,217.644 h 31.181 v 30.505 H 31.221 Z" /></clipPath><clipPath
       id="clipPath5166"
       clipPathUnits="userSpaceOnUse"><path
         id="path5164"
         d="m 253.805,128.938 h 31.18 v 49.183 h -31.18 z" /></clipPath><clipPath
       id="clipPath5246"
       clipPathUnits="userSpaceOnUse"><path
         id="path5244"
         d="m 254.893,128.938 h 28.318 v 47.642 h -28.318 z" /></clipPath><clipPath
       id="clipPath5262"
       clipPathUnits="userSpaceOnUse"><path
         id="path5260"
         d="m 253.805,128.938 h 31.18 v 49.183 h -31.18 z" /></clipPath><clipPath
       id="clipPath5306"
       clipPathUnits="userSpaceOnUse"><path
         id="path5304"
         d="m 80.627,427.21 h 33.754 v 47.752 H 80.627 Z" /></clipPath><clipPath
       id="clipPath5430"
       clipPathUnits="userSpaceOnUse"><path
         id="path5428"
         d="m 253.52,442.435 h 31.681 v 31.682 H 253.52 Z" /></clipPath><clipPath
       id="clipPath5470"
       clipPathUnits="userSpaceOnUse"><path
         id="path5468"
         d="m 144.082,442.655 h 31.182 v 31.181 h -31.182 z" /></clipPath><clipPath
       id="clipPath5494"
       clipPathUnits="userSpaceOnUse"><path
         id="path5492"
         d="m 206.564,443.375 h 29.744 v 29.741 h -29.744 z" /></clipPath><clipPath
       id="clipPath5510"
       clipPathUnits="userSpaceOnUse"><path
         id="path5508"
         d="m 205.346,442.155 h 32.18 v 32.181 h -32.18 z" /></clipPath><clipPath
       id="clipPath5534"
       clipPathUnits="userSpaceOnUse"><path
         id="path5532"
         d="m 31.307,358.246 h 31.055 v 31.056 H 31.307 Z" /></clipPath><clipPath
       id="clipPath5558"
       clipPathUnits="userSpaceOnUse"><path
         id="path5556"
         d="m 205.989,357.69 h 31.181 v 31.181 h -31.181 z" /></clipPath></defs><g
     transform="matrix(1.3333333,0,0,-1.3333333,-111.47693,435.15866)"
     id="g3740"><g
       id="g4808"><g
         clip-path="url(#clipPath4814)"
         id="g4810"><g
           transform="translate(97.7847,326.369)"
           id="g4816"><path
             id="path4818"
             style="fill:#e3000f;fill-opacity:1;fill-rule:evenodd;stroke:none"
             d="m 0,0 c 7.827,0 14.18,-6.35 14.18,-14.18 0,-7.825 -6.353,-14.175 -14.18,-14.175 -7.827,0 -14.177,6.35 -14.177,14.175 C -14.177,-6.35 -7.827,0 0,0" /><g
             transform="translate(0,-2.792)"
             id="g4820"><path
               id="path4822"
               style="fill:#ffffff;fill-opacity:1;fill-rule:evenodd;stroke:none"
               d="m 0,0 c 6.262,0 11.344,-5.083 11.344,-11.347 0,-6.26 -5.082,-11.342 -11.344,-11.342 -6.262,0 -11.345,5.082 -11.345,11.342 C -11.345,-5.083 -6.262,0 0,0" /><g
               transform="translate(0.3516,-12.6026)"
               id="g4824"><path
                 id="path4826"
                 style="fill:#1a1a18;fill-opacity:1;fill-rule:evenodd;stroke:none"
                 d="m 0,0 c -0.105,0.228 -0.228,0.469 -0.347,0.71 h -0.589 v 0.478 h 0.398 0.011 c 0.06,0.085 0.155,0.122 0.252,0.122 0.097,0 0.192,-0.05 0.264,-0.122 H 0 0.494 V 0.71 H 0.048 c 0.086,-0.181 0.18,-0.361 0.277,-0.555 0.011,0 0.025,0 0.036,0.014 0.133,0.047 0.286,0.072 0.431,0.072 h 0.06 L 0.866,0.228 c 0.445,1.104 0.9,2.223 1.356,3.337 H -4.201 C -4.259,3.339 -4.322,3.109 -4.395,2.881 -2.965,1.896 -1.535,0.913 -0.097,-0.07 -0.071,-0.048 -0.036,-0.025 0,0 m 6.473,-1.045 c 0.022,-0.047 0.035,-0.095 0.035,-0.143 0,-0.19 -0.17,-0.362 -0.361,-0.362 H 3.688 L 3.674,-1.559 c 0.192,-1.226 1.239,-2.129 2.473,-2.129 1.381,0 2.496,1.119 2.496,2.5 C 8.643,0.18 7.528,1.31 6.147,1.31 5.871,1.31 5.571,1.26 5.307,1.165 5.692,0.433 6.075,-0.301 6.473,-1.045 M 4.563,0.746 C 4.071,0.336 3.77,-0.179 3.674,-0.814 v -0.028 h 1.74 C 5.139,-0.312 4.862,0.216 4.577,0.757 Z M 1.755,-0.12 C 2.222,1.043 2.69,2.221 3.17,3.398 3.471,2.834 3.77,2.271 4.071,1.707 c 0,0 -0.012,0 -0.026,-0.014 C 3.217,1.093 2.702,0.205 2.594,-0.828 h 0.01 -0.43 c -0.072,0.275 -0.192,0.491 -0.408,0.685 0,0 0,0.012 -0.011,0.023 M -5.089,0.503 C -5.148,0.3 -5.211,0.083 -5.283,-0.131 -5.486,-0.792 -6.181,-1.355 -6.853,-1.536 -6.88,-1.55 -6.916,-1.55 -6.925,-1.55 c -0.194,0 -0.361,0.172 -0.361,0.362 0,0.121 0.059,0.229 0.145,0.288 0.011,0.011 0.036,0.022 0.058,0.036 0.409,0.275 0.745,0.599 0.877,0.997 0.098,0.311 0.192,0.636 0.301,0.96 h -0.014 c -0.312,0.144 -0.647,0.217 -1.006,0.217 -1.382,0 -2.498,-1.13 -2.498,-2.498 0,-1.381 1.116,-2.5 2.498,-2.5 1.367,0 2.494,1.119 2.494,2.5 0,0.649 -0.25,1.235 -0.658,1.681 z m 4.934,-1.691 c 0,-0.529 0.432,-0.948 0.947,-0.948 0.53,0 0.963,0.419 0.963,0.948 0,0.515 -0.433,0.949 -0.963,0.949 -0.515,0 -0.947,-0.434 -0.947,-0.949 m -5.451,3.314 c 0.3,1.008 0.6,2.016 0.9,3.024 v 0.036 c 0,0.047 -0.023,0.084 -0.072,0.108 h -0.011 c -0.359,0.156 -0.589,0.494 -0.589,0.877 0,0.528 0.419,0.961 0.947,0.961 h 0.361 1.299 V 6.183 h -1.191 -0.239 c -0.058,0 -0.108,-0.061 -0.108,-0.119 0,-0.037 0.011,-0.073 0.05,-0.098 L -4.251,5.955 C -3.948,5.788 -3.745,5.572 -3.745,5.233 -3.745,5.078 -3.756,5.03 -3.804,4.886 -3.817,4.8 -3.948,4.395 -3.948,4.395 c 2.16,0 4.32,0 6.493,0.011 C 2.676,4.719 2.811,5.03 2.94,5.342 2.449,5.463 1.958,5.583 1.466,5.716 1.369,5.739 1.297,5.833 1.297,5.941 c 0,0.134 0.108,0.242 0.227,0.242 H 4.862 C 4.862,5.655 4.432,5.222 3.914,5.222 3.807,4.958 3.698,4.683 3.579,4.406 3.987,3.65 4.395,2.881 4.803,2.112 h 0.012 c 0.42,0.181 0.877,0.266 1.332,0.266 1.969,0 3.566,-1.598 3.566,-3.566 0,-1.967 -1.597,-3.568 -3.566,-3.568 -1.838,0 -3.361,1.384 -3.553,3.206 H 2.604 2.185 2.174 C 2.091,-1.897 1.896,-2.172 1.597,-2.375 1.719,-2.618 1.838,-2.857 1.958,-3.097 H 2.522 V -3.565 H 2.138 C 2.066,-3.638 1.969,-3.688 1.86,-3.688 c -0.094,0 -0.191,0.037 -0.263,0.123 H 1.094 v 0.468 H 1.55 c -0.098,0.181 -0.192,0.37 -0.289,0.564 V -2.546 C 1.058,-2.604 1.009,-2.618 0.792,-2.618 c -0.78,0 -1.428,0.636 -1.428,1.43 0,0.143 0.026,0.274 0.072,0.408 v 0.024 C -1.919,0.169 -3.276,1.104 -4.634,2.04 -4.67,1.921 -4.706,1.788 -4.753,1.657 V 1.634 c 0.888,-0.685 1.391,-1.704 1.391,-2.822 0,-1.967 -1.597,-3.568 -3.563,-3.568 -1.971,0 -3.567,1.601 -3.567,3.568 0,1.968 1.596,3.566 3.567,3.566 0.55,0 0.767,-0.035 1.295,-0.241 0,0 0.013,0 0.024,-0.011" /></g></g></g></g></g></g></svg>