<?xml version="1.0" encoding="UTF-8" standalone="no"?>
<svg
   xmlns:dc="http://purl.org/dc/elements/1.1/"
   xmlns:cc="http://creativecommons.org/ns#"
   xmlns:rdf="http://www.w3.org/1999/02/22-rdf-syntax-ns#"
   xmlns:svg="http://www.w3.org/2000/svg"
   xmlns="http://www.w3.org/2000/svg"
   viewBox="0 0 37.790241 37.777332"
   height="37.777332"
   width="37.790241"
   xml:space="preserve"
   id="svg3732"
   version="1.1"><metadata
     id="metadata3738"><rdf:RDF><cc:Work
         rdf:about=""><dc:format>image/svg+xml</dc:format><dc:type
           rdf:resource="http://purl.org/dc/dcmitype/StillImage" /><dc:title></dc:title></cc:Work></rdf:RDF></metadata><defs
     id="defs3736"><clipPath
       id="clipPath3918"
       clipPathUnits="userSpaceOnUse"><path
         id="path3916"
         d="m 28.347,410.892 h 36.85 v 65.197 h -36.85 z" /></clipPath><clipPath
       id="clipPath4206"
       clipPathUnits="userSpaceOnUse"><path
         id="path4204"
         d="m 81.386,359.024 h 32.081 V 387.36 H 81.386 Z" /></clipPath><clipPath
       id="clipPath4234"
       clipPathUnits="userSpaceOnUse"><path
         id="path4232"
         d="m 81.148,357.603 h 32.557 v 32.556 H 81.148 Z" /></clipPath><clipPath
       id="clipPath4252"
       clipPathUnits="userSpaceOnUse"><path
         id="path4250"
         d="m 253.862,357.799 h 30.931 v 30.931 h -30.931 z" /></clipPath><clipPath
       id="clipPath4276"
       clipPathUnits="userSpaceOnUse"><path
         id="path4274"
         d="m 255.027,298.044 h 28.327 v 28.309 h -28.327 z" /></clipPath><clipPath
       id="clipPath4288"
       clipPathUnits="userSpaceOnUse"><path
         id="path4286"
         d="m 253.6,296.608 h 31.18 v 31.181 H 253.6 Z" /></clipPath><clipPath
       id="clipPath4308"
       clipPathUnits="userSpaceOnUse"><path
         id="path4306"
         d="m 145.289,297.948 h 28.343 v 28.333 h -28.343 z" /></clipPath><clipPath
       id="clipPath4320"
       clipPathUnits="userSpaceOnUse"><path
         id="path4318"
         d="m 143.994,296.44 h 30.933 v 31.348 h -30.933 z" /></clipPath><clipPath
       id="clipPath4356"
       clipPathUnits="userSpaceOnUse"><path
         id="path4354"
         d="m 144.05,357.617 h 31.18 v 31.181 h -31.18 z" /></clipPath><clipPath
       id="clipPath4392"
       clipPathUnits="userSpaceOnUse"><path
         id="path4390"
         d="m 205.87,296.554 h 31.334 v 31.333 H 205.87 Z" /></clipPath><clipPath
       id="clipPath4420"
       clipPathUnits="userSpaceOnUse"><path
         id="path4418"
         d="m 81.918,148.179 h 31.181 V 179.36 H 81.918 Z" /></clipPath><clipPath
       id="clipPath4444"
       clipPathUnits="userSpaceOnUse"><path
         id="path4442"
         d="m 144.085,148.179 h 31.181 v 31.181 h -31.181 z" /></clipPath><clipPath
       id="clipPath4468"
       clipPathUnits="userSpaceOnUse"><path
         id="path4466"
         d="m 207.49,149.628 h 28.283 v 28.284 H 207.49 Z" /></clipPath><clipPath
       id="clipPath4480"
       clipPathUnits="userSpaceOnUse"><path
         id="path4478"
         d="m 206.041,148.179 h 31.181 v 31.181 h -31.181 z" /></clipPath><clipPath
       id="clipPath4512"
       clipPathUnits="userSpaceOnUse"><path
         id="path4510"
         d="m 27.838,277.968 h 37.623 v 55.495 H 27.838 Z" /></clipPath><clipPath
       id="clipPath4578"
       clipPathUnits="userSpaceOnUse"><path
         id="path4576"
         d="m 32.292,126.022 h 30.367 v 51.632 H 32.292 Z" /></clipPath><clipPath
       id="clipPath4594"
       clipPathUnits="userSpaceOnUse"><path
         id="path4592"
         d="m 32.292,126.022 h 30.367 v 51.632 H 32.292 Z" /></clipPath><clipPath
       id="clipPath4610"
       clipPathUnits="userSpaceOnUse"><path
         id="path4608"
         d="M 30.373,124.967 H 63.2 v 55.118 H 30.373 Z" /></clipPath><clipPath
       id="clipPath4776"
       clipPathUnits="userSpaceOnUse"><path
         id="path4774"
         d="m 32.292,126.022 h 30.367 v 51.632 H 32.292 Z" /></clipPath><clipPath
       id="clipPath4794"
       clipPathUnits="userSpaceOnUse"><path
         id="path4792"
         d="M 30.373,124.967 H 63.2 v 55.118 H 30.373 Z" /></clipPath><clipPath
       id="clipPath4814"
       clipPathUnits="userSpaceOnUse"><path
         id="path4812"
         d="m 81.663,296.758 h 31.556 v 31.556 H 81.663 Z" /></clipPath><clipPath
       id="clipPath4834"
       clipPathUnits="userSpaceOnUse"><path
         id="path4832"
         d="m 81.94,216.969 h 31.181 v 31.18 H 81.94 Z" /></clipPath><clipPath
       id="clipPath5006"
       clipPathUnits="userSpaceOnUse"><path
         id="path5004"
         d="m 205.897,216.969 h 31.181 v 31.18 h -31.181 z" /></clipPath><clipPath
       id="clipPath5074"
       clipPathUnits="userSpaceOnUse"><path
         id="path5072"
         d="m 253.701,216.969 h 31.181 v 31.18 h -31.181 z" /></clipPath><clipPath
       id="clipPath5118"
       clipPathUnits="userSpaceOnUse"><path
         id="path5116"
         d="m 31.221,217.644 h 31.181 v 30.505 H 31.221 Z" /></clipPath><clipPath
       id="clipPath5166"
       clipPathUnits="userSpaceOnUse"><path
         id="path5164"
         d="m 253.805,128.938 h 31.18 v 49.183 h -31.18 z" /></clipPath><clipPath
       id="clipPath5246"
       clipPathUnits="userSpaceOnUse"><path
         id="path5244"
         d="m 254.893,128.938 h 28.318 v 47.642 h -28.318 z" /></clipPath><clipPath
       id="clipPath5262"
       clipPathUnits="userSpaceOnUse"><path
         id="path5260"
         d="m 253.805,128.938 h 31.18 v 49.183 h -31.18 z" /></clipPath><clipPath
       id="clipPath5306"
       clipPathUnits="userSpaceOnUse"><path
         id="path5304"
         d="m 80.627,427.21 h 33.754 v 47.752 H 80.627 Z" /></clipPath><clipPath
       id="clipPath5430"
       clipPathUnits="userSpaceOnUse"><path
         id="path5428"
         d="m 253.52,442.435 h 31.681 v 31.682 H 253.52 Z" /></clipPath><clipPath
       id="clipPath5470"
       clipPathUnits="userSpaceOnUse"><path
         id="path5468"
         d="m 144.082,442.655 h 31.182 v 31.181 h -31.182 z" /></clipPath><clipPath
       id="clipPath5494"
       clipPathUnits="userSpaceOnUse"><path
         id="path5492"
         d="m 206.564,443.375 h 29.744 v 29.741 h -29.744 z" /></clipPath><clipPath
       id="clipPath5510"
       clipPathUnits="userSpaceOnUse"><path
         id="path5508"
         d="m 205.346,442.155 h 32.18 v 32.181 h -32.18 z" /></clipPath><clipPath
       id="clipPath5534"
       clipPathUnits="userSpaceOnUse"><path
         id="path5532"
         d="m 31.307,358.246 h 31.055 v 31.056 H 31.307 Z" /></clipPath><clipPath
       id="clipPath5558"
       clipPathUnits="userSpaceOnUse"><path
         id="path5556"
         d="m 205.989,357.69 h 31.181 v 31.181 h -31.181 z" /></clipPath></defs><g
     transform="matrix(1.3333333,0,0,-1.3333333,-193.71866,435.04132)"
     id="g3740"><g
       id="g4302"><g
         clip-path="url(#clipPath4308)"
         id="g4304"><g
           transform="translate(156.9995,326.0638)"
           id="g4310"><path
             id="path4312"
             style="fill:#e3000f;fill-opacity:1;fill-rule:evenodd;stroke:none"
             d="m 0,0 c -7.704,-1.359 -12.852,-8.713 -11.493,-16.417 1.35,-7.704 8.703,-12.842 16.416,-11.481 7.704,1.358 12.852,8.702 11.491,16.406 C 15.057,-3.788 7.713,1.359 0,0" /></g></g></g><g
       id="g4314"><g
         clip-path="url(#clipPath4320)"
         id="g4316"><g
           transform="translate(157.5034,323.2644)"
           id="g4322"><path
             id="path4324"
             style="fill:#ffffff;fill-opacity:1;fill-rule:evenodd;stroke:none"
             d="m 0,0 c -6.165,-1.09 -10.278,-6.965 -9.189,-13.132 1.089,-6.164 6.966,-10.286 13.122,-9.195 6.164,1.088 10.278,6.963 9.198,13.13 C 12.04,-3.034 6.165,1.089 0,0" /></g><g
           transform="translate(155.5596,316.9368)"
           id="g4326"><path
             id="path4328"
             style="fill:#1a1a18;fill-opacity:1;fill-rule:evenodd;stroke:none"
             d="m 0,0 v 0 c 0.412,0 0.746,-0.33 0.746,-0.738 0,-0.407 -0.334,-0.738 -0.746,-0.738 -0.413,0 -0.747,0.331 -0.747,0.738 C -0.747,-0.33 -0.413,0 0,0 m 0,0.479 v 0 c 0.671,0 1.215,-0.546 1.215,-1.217 0,-0.67 -0.544,-1.213 -1.215,-1.213 -0.671,0 -1.215,0.543 -1.215,1.213 0,0.671 0.544,1.217 1.215,1.217 m 0,0.738 v 0 c 1.081,0 1.962,-0.875 1.962,-1.955 0,-1.076 -0.881,-1.951 -1.962,-1.951 -1.084,0 -1.962,0.875 -1.962,1.951 0,1.08 0.878,1.955 1.962,1.955" /></g><g
           transform="translate(163.9634,316.9368)"
           id="g4330"><path
             id="path4332"
             style="fill:#1a1a18;fill-opacity:1;fill-rule:evenodd;stroke:none"
             d="m 0,0 v 0 c 0.414,0 0.749,-0.33 0.749,-0.738 0,-0.407 -0.335,-0.738 -0.749,-0.738 -0.41,0 -0.745,0.331 -0.745,0.738 C -0.745,-0.33 -0.41,0 0,0 m 0,0.479 v 0 c 0.674,0 1.217,-0.546 1.217,-1.217 0,-0.67 -0.543,-1.213 -1.217,-1.213 -0.669,0 -1.213,0.543 -1.213,1.213 0,0.671 0.544,1.217 1.213,1.217 m 0,0.738 v 0 c 1.084,0 1.962,-0.875 1.962,-1.955 0,-1.076 -0.878,-1.951 -1.962,-1.951 -1.082,0 -1.962,0.875 -1.962,1.951 0,1.08 0.88,1.955 1.962,1.955" /></g><g
           transform="translate(163.8559,317.5594)"
           id="g4334"><path
             id="path4336"
             style="fill:#1a1a18;fill-opacity:1;fill-rule:evenodd;stroke:none"
             d="m 0,0 0.28,-0.81 -0.612,-0.18 -0.28,0.81 z" /></g><g
           transform="translate(156.1177,316.4436)"
           id="g4338"><path
             id="path4340"
             style="fill:#1a1a18;fill-opacity:1;fill-rule:evenodd;stroke:none"
             d="M 0,0 0.98,1.573 0.342,1.951 -0.63,0.367 Z" /></g><g
           transform="translate(162.0376,316.6233)"
           id="g4342"><path
             id="path4344"
             style="fill:#1a1a18;fill-opacity:1;fill-rule:evenodd;stroke:none"
             d="M 0,0 C 0.101,0.458 0.371,0.864 0.738,1.141 0.785,1.195 0.774,1.26 0.684,1.26 h -0.81 V 0 c 0,-0.083 0.108,-0.101 0.126,0 m -2.086,2.923 -1.539,-0.881 1.249,-0.505 0.839,0.846 c -0.252,0.155 -0.389,0.27 -0.549,0.54 M 2.854,1.771 C 3.708,1.404 4.312,0.558 4.312,-0.432 H 3.51 L 3.096,0.619 1.774,1.188 0.425,0.288 v -1.656 h -1.703 c -0.817,-0.011 -1.375,-0.011 -2.077,-0.011 -0.693,0 -0.918,0.486 -0.918,0.954 0,1.217 -0.999,2.214 -2.223,2.214 L -6.532,1.782 v 0.817 h 0.495 c 0.396,0 1.015,0.209 1.26,0.587 l 1.015,1.555 c 0.126,0.198 0.218,0.09 0.182,-0.025 L -3.996,2.988 C -4.048,2.772 -3.798,2.635 -3.58,2.844 l 0.513,0.468 0.54,0.9 V 4.32 c -0.263,0 -0.479,0.177 -0.479,0.396 v 0.601 h -0.169 c 0.043,0.425 0.288,0.775 0.781,0.775 0.497,0 0.776,-0.35 0.776,-0.775 C -1.627,4.932 -1.71,4.939 -1.772,4.824 V 4.543 C -1.71,4.554 -1.638,4.536 -1.52,4.489 -1.411,4.446 -0.997,4.284 -0.907,4.23 -0.817,4.176 -0.781,4.176 -0.666,4.057 L 0.306,3.042 C 0.522,2.815 0.54,2.581 0.54,2.365 h 1.962 c 0.27,0 0.36,-0.169 0.36,-0.493 L 2.854,1.771" /></g><g
           transform="translate(156.5044,305.8488)"
           id="g4346"><path
             id="path4348"
             style="fill:#1a1a18;fill-opacity:1;fill-rule:evenodd;stroke:none"
             d="M 0,0 V 0.342 H 2.959 5.922 V 0 L 4.068,-0.108 H 2.959 1.853 Z M 2.97,1.253 H 5.94 V 0.792 H 2.97 2.941 -0.018 V 1.253 H 2.941 Z M 0,2.08 V 1.728 H 2.959 5.922 V 2.08 L 4.068,2.189 H 2.959 1.853 Z m -1.251,2.636 0.171,0.918 c 0.198,0.971 1.233,1.109 2.286,1.109 h 1.753 1.746 c 1.063,0 2.099,-0.138 2.297,-1.109 L 7.171,4.716 C 7.254,4.158 6.948,3.96 6.344,3.996 L 2.959,4.14 -0.432,3.996 c -0.603,-0.036 -0.9,0.162 -0.819,0.72 M -1.386,2.963 v 0 c 0.447,0 0.81,-0.364 0.81,-0.811 0,-0.446 -0.363,-0.809 -0.81,-0.809 -0.447,0 -0.81,0.363 -0.81,0.809 0,0.447 0.363,0.811 0.81,0.811 m 8.683,0 v 0 C 7.74,2.963 8.1,2.599 8.1,2.152 8.1,1.706 7.74,1.343 7.297,1.343 c -0.441,0 -0.799,0.363 -0.799,0.809 0,0.447 0.358,0.811 0.799,0.811 M -2.052,3.52 -1.44,6.617 c 0.063,0.341 0.477,0.979 1.305,0.989 H 2.959 6.056 C 6.883,7.596 7.297,6.958 7.362,6.617 L 7.963,3.52 C 8.359,3.448 8.766,3.06 8.766,2.639 V 0.071 c 0,-0.367 -0.334,-0.69 -0.496,-0.809 V -2.6 C 8.018,-2.852 7.766,-3.021 7.423,-3.021 c -0.342,0 -0.701,0.187 -0.907,0.421 v 1.8 L 4.903,-0.926 H 2.959 1.008 L -0.594,-0.8 v -1.8 c -0.207,-0.234 -0.567,-0.421 -0.909,-0.421 -0.342,0 -0.594,0.169 -0.855,0.421 v 1.862 c -0.162,0.119 -0.495,0.442 -0.495,0.809 v 2.568 c 0,0.421 0.414,0.809 0.801,0.881" /></g></g></g></g></svg>