<?xml version="1.0" encoding="UTF-8" standalone="no"?>
<svg
   xmlns:dc="http://purl.org/dc/elements/1.1/"
   xmlns:cc="http://creativecommons.org/ns#"
   xmlns:rdf="http://www.w3.org/1999/02/22-rdf-syntax-ns#"
   xmlns:svg="http://www.w3.org/2000/svg"
   xmlns="http://www.w3.org/2000/svg"
   viewBox="0 0 44.137333 63.430664"
   height="63.430664"
   width="44.137333"
   xml:space="preserve"
   id="svg3732"
   version="1.1"><metadata
     id="metadata3738"><rdf:RDF><cc:Work
         rdf:about=""><dc:format>image/svg+xml</dc:format><dc:type
           rdf:resource="http://purl.org/dc/dcmitype/StillImage" /><dc:title></dc:title></cc:Work></rdf:RDF></metadata><defs
     id="defs3736"><clipPath
       id="clipPath3918"
       clipPathUnits="userSpaceOnUse"><path
         id="path3916"
         d="m 28.347,410.892 h 36.85 v 65.197 h -36.85 z" /></clipPath><clipPath
       id="clipPath4206"
       clipPathUnits="userSpaceOnUse"><path
         id="path4204"
         d="m 81.386,359.024 h 32.081 V 387.36 H 81.386 Z" /></clipPath><clipPath
       id="clipPath4234"
       clipPathUnits="userSpaceOnUse"><path
         id="path4232"
         d="m 81.148,357.603 h 32.557 v 32.556 H 81.148 Z" /></clipPath><clipPath
       id="clipPath4252"
       clipPathUnits="userSpaceOnUse"><path
         id="path4250"
         d="m 253.862,357.799 h 30.931 v 30.931 h -30.931 z" /></clipPath><clipPath
       id="clipPath4276"
       clipPathUnits="userSpaceOnUse"><path
         id="path4274"
         d="m 255.027,298.044 h 28.327 v 28.309 h -28.327 z" /></clipPath><clipPath
       id="clipPath4288"
       clipPathUnits="userSpaceOnUse"><path
         id="path4286"
         d="m 253.6,296.608 h 31.18 v 31.181 H 253.6 Z" /></clipPath><clipPath
       id="clipPath4308"
       clipPathUnits="userSpaceOnUse"><path
         id="path4306"
         d="m 145.289,297.948 h 28.343 v 28.333 h -28.343 z" /></clipPath><clipPath
       id="clipPath4320"
       clipPathUnits="userSpaceOnUse"><path
         id="path4318"
         d="m 143.994,296.44 h 30.933 v 31.348 h -30.933 z" /></clipPath><clipPath
       id="clipPath4356"
       clipPathUnits="userSpaceOnUse"><path
         id="path4354"
         d="m 144.05,357.617 h 31.18 v 31.181 h -31.18 z" /></clipPath><clipPath
       id="clipPath4392"
       clipPathUnits="userSpaceOnUse"><path
         id="path4390"
         d="m 205.87,296.554 h 31.334 v 31.333 H 205.87 Z" /></clipPath><clipPath
       id="clipPath4420"
       clipPathUnits="userSpaceOnUse"><path
         id="path4418"
         d="m 81.918,148.179 h 31.181 V 179.36 H 81.918 Z" /></clipPath><clipPath
       id="clipPath4444"
       clipPathUnits="userSpaceOnUse"><path
         id="path4442"
         d="m 144.085,148.179 h 31.181 v 31.181 h -31.181 z" /></clipPath><clipPath
       id="clipPath4468"
       clipPathUnits="userSpaceOnUse"><path
         id="path4466"
         d="m 207.49,149.628 h 28.283 v 28.284 H 207.49 Z" /></clipPath><clipPath
       id="clipPath4480"
       clipPathUnits="userSpaceOnUse"><path
         id="path4478"
         d="m 206.041,148.179 h 31.181 v 31.181 h -31.181 z" /></clipPath><clipPath
       id="clipPath4512"
       clipPathUnits="userSpaceOnUse"><path
         id="path4510"
         d="m 27.838,277.968 h 37.623 v 55.495 H 27.838 Z" /></clipPath><clipPath
       id="clipPath4578"
       clipPathUnits="userSpaceOnUse"><path
         id="path4576"
         d="m 32.292,126.022 h 30.367 v 51.632 H 32.292 Z" /></clipPath><clipPath
       id="clipPath4594"
       clipPathUnits="userSpaceOnUse"><path
         id="path4592"
         d="m 32.292,126.022 h 30.367 v 51.632 H 32.292 Z" /></clipPath><clipPath
       id="clipPath4610"
       clipPathUnits="userSpaceOnUse"><path
         id="path4608"
         d="M 30.373,124.967 H 63.2 v 55.118 H 30.373 Z" /></clipPath><clipPath
       id="clipPath4776"
       clipPathUnits="userSpaceOnUse"><path
         id="path4774"
         d="m 32.292,126.022 h 30.367 v 51.632 H 32.292 Z" /></clipPath><clipPath
       id="clipPath4794"
       clipPathUnits="userSpaceOnUse"><path
         id="path4792"
         d="M 30.373,124.967 H 63.2 v 55.118 H 30.373 Z" /></clipPath><clipPath
       id="clipPath4814"
       clipPathUnits="userSpaceOnUse"><path
         id="path4812"
         d="m 81.663,296.758 h 31.556 v 31.556 H 81.663 Z" /></clipPath><clipPath
       id="clipPath4834"
       clipPathUnits="userSpaceOnUse"><path
         id="path4832"
         d="m 81.94,216.969 h 31.181 v 31.18 H 81.94 Z" /></clipPath><clipPath
       id="clipPath5006"
       clipPathUnits="userSpaceOnUse"><path
         id="path5004"
         d="m 205.897,216.969 h 31.181 v 31.18 h -31.181 z" /></clipPath><clipPath
       id="clipPath5074"
       clipPathUnits="userSpaceOnUse"><path
         id="path5072"
         d="m 253.701,216.969 h 31.181 v 31.18 h -31.181 z" /></clipPath><clipPath
       id="clipPath5118"
       clipPathUnits="userSpaceOnUse"><path
         id="path5116"
         d="m 31.221,217.644 h 31.181 v 30.505 H 31.221 Z" /></clipPath><clipPath
       id="clipPath5166"
       clipPathUnits="userSpaceOnUse"><path
         id="path5164"
         d="m 253.805,128.938 h 31.18 v 49.183 h -31.18 z" /></clipPath><clipPath
       id="clipPath5246"
       clipPathUnits="userSpaceOnUse"><path
         id="path5244"
         d="m 254.893,128.938 h 28.318 v 47.642 h -28.318 z" /></clipPath><clipPath
       id="clipPath5262"
       clipPathUnits="userSpaceOnUse"><path
         id="path5260"
         d="m 253.805,128.938 h 31.18 v 49.183 h -31.18 z" /></clipPath><clipPath
       id="clipPath5306"
       clipPathUnits="userSpaceOnUse"><path
         id="path5304"
         d="m 80.627,427.21 h 33.754 v 47.752 H 80.627 Z" /></clipPath><clipPath
       id="clipPath5430"
       clipPathUnits="userSpaceOnUse"><path
         id="path5428"
         d="m 253.52,442.435 h 31.681 v 31.682 H 253.52 Z" /></clipPath><clipPath
       id="clipPath5470"
       clipPathUnits="userSpaceOnUse"><path
         id="path5468"
         d="m 144.082,442.655 h 31.182 v 31.181 h -31.182 z" /></clipPath><clipPath
       id="clipPath5494"
       clipPathUnits="userSpaceOnUse"><path
         id="path5492"
         d="m 206.564,443.375 h 29.744 v 29.741 h -29.744 z" /></clipPath><clipPath
       id="clipPath5510"
       clipPathUnits="userSpaceOnUse"><path
         id="path5508"
         d="m 205.346,442.155 h 32.18 v 32.181 h -32.18 z" /></clipPath><clipPath
       id="clipPath5534"
       clipPathUnits="userSpaceOnUse"><path
         id="path5532"
         d="m 31.307,358.246 h 31.055 v 31.056 H 31.307 Z" /></clipPath><clipPath
       id="clipPath5558"
       clipPathUnits="userSpaceOnUse"><path
         id="path5556"
         d="m 205.989,357.69 h 31.181 v 31.181 h -31.181 z" /></clipPath></defs><g
     transform="matrix(1.3333333,0,0,-1.3333333,-40.233599,435.43866)"
     id="g3740"><g
       transform="translate(44.2215,279.0225)"
       id="g4494"><path
         id="path4496"
         style="fill:#1a1a18;fill-opacity:1;fill-rule:nonzero;stroke:none"
         d="M 0,0 V 32.276 Z" /></g><path
       id="path4498"
       style="fill:#1a1a18;fill-opacity:1;fill-rule:nonzero;stroke:none"
       d="m 44.001,279.022 h 0.442 v 32.276 h -0.442 z" /><g
       transform="translate(49.1301,279.0063)"
       id="g4500"><path
         id="path4502"
         style="fill:#1a1a18;fill-opacity:1;fill-rule:nonzero;stroke:none"
         d="M 0,0 V 32.277 Z" /></g><path
       id="path4504"
       style="fill:#1a1a18;fill-opacity:1;fill-rule:nonzero;stroke:none"
       d="m 48.91,279.006 h 0.442 v 32.277 H 48.91 Z" /><g
       id="g4506"><g
         clip-path="url(#clipPath4512)"
         id="g4508"><g
           transform="translate(46.6717,326.579)"
           id="g4514"><path
             id="path4516"
             style="fill:#e3000f;fill-opacity:1;fill-rule:nonzero;stroke:none"
             d="m 0,0 c 7.836,0 14.189,-6.352 14.189,-14.189 0,-7.836 -6.353,-14.189 -14.189,-14.189 -7.836,0 -14.189,6.353 -14.189,14.189 C -14.189,-6.352 -7.836,0 0,0" /></g><g
           transform="translate(46.6717,323.7534)"
           id="g4518"><path
             id="path4520"
             style="fill:#ffffff;fill-opacity:1;fill-rule:nonzero;stroke:none"
             d="m 0,0 c 6.275,0 11.362,-5.088 11.362,-11.363 0,-6.276 -5.087,-11.363 -11.362,-11.363 -6.275,0 -11.363,5.087 -11.363,11.363 C -11.363,-5.088 -6.275,0 0,0" /></g><g
           transform="translate(32.1662,282.5519)"
           id="g4522"><path
             id="path4524"
             style="fill:#1a1a18;fill-opacity:1;fill-rule:evenodd;stroke:none"
             d="M 0,0 H 0.007 0 c -1.099,0 -1.991,0.892 -1.991,1.991 v 5.11 0.006 c 0,1.098 0.892,1.991 1.991,1.991 h 0.007 29.12 C 30.226,9.095 31.112,8.204 31.112,7.107 V 7.101 1.991 C 31.112,0.894 30.226,0.003 29.127,0 H 0" /></g><g
           transform="translate(32.1745,283.5486)"
           id="g4526"><path
             id="path4528"
             style="fill:#ffffff;fill-opacity:1;fill-rule:evenodd;stroke:none"
             d="M 0,0 V 0 C -0.549,0 -0.996,0.445 -0.996,0.994 V 6.1 6.11 c 0,0.549 0.447,0.995 0.996,0.995 H 29.12 C 29.667,7.1 30.108,6.656 30.108,6.11 V 6.1 0.994 C 30.108,0.448 29.667,0.004 29.12,0 H 0" /></g><g
           transform="translate(33.5298,288.8986)"
           id="g4530"><path
             id="path4532"
             style="fill:#1a1a18;fill-opacity:1;fill-rule:nonzero;stroke:none"
             d="M 0,0 H 0.752 L 2.309,-2.29 V 0 H 2.998 V -3.415 H 2.246 l -1.562,2.29 v -2.29 H 0 Z" /></g><g
           transform="translate(38.8942,286.6819)"
           id="g4534"><path
             id="path4536"
             style="fill:#1a1a18;fill-opacity:1;fill-rule:nonzero;stroke:none"
             d="m 0,0 c 0,0.577 -0.199,0.757 -0.49,0.757 -0.369,0 -0.519,-0.301 -0.519,-0.757 0,-0.397 0.194,-0.699 0.519,-0.699 C -0.17,-0.699 0,-0.397 0,0 m -1.688,0 c 0,0.994 0.582,1.358 1.164,1.358 0.529,0 1.188,-0.364 1.188,-1.358 0,-0.732 -0.48,-1.285 -1.154,-1.285 -0.742,0 -1.198,0.509 -1.198,1.285" /></g><g
           transform="translate(42.6916,286.4007)"
           id="g4538"><path
             id="path4540"
             style="fill:#1a1a18;fill-opacity:1;fill-rule:nonzero;stroke:none"
             d="m 0,0 0.504,1.533 h 0.679 l -0.819,-2.45 h -0.747 l -0.849,2.45 h 0.713 z" /></g><g
           transform="translate(44.8207,286.9878)"
           id="g4542"><path
             id="path4544"
             style="fill:#1a1a18;fill-opacity:1;fill-rule:nonzero;stroke:none"
             d="M 0,0 H 0.994 C 0.98,0.243 0.737,0.461 0.495,0.461 0.247,0.461 0.039,0.266 0,0 M 1.159,-0.723 1.552,-1.15 c -0.315,-0.286 -0.524,-0.407 -0.97,-0.407 -0.761,0 -1.227,0.562 -1.227,1.314 0,0.669 0.432,1.256 1.096,1.256 0.723,0 1.169,-0.538 1.169,-1.344 V -0.5 H 0 c 0.014,-0.281 0.272,-0.485 0.597,-0.485 0.184,0 0.286,0.03 0.562,0.262" /></g><g
           transform="translate(48.2783,288.0012)"
           id="g4546"><path
             id="path4548"
             style="fill:#1a1a18;fill-opacity:1;fill-rule:nonzero;stroke:none"
             d="M 0,0 C 0.504,0 0.932,-0.446 0.932,-1.028 V -2.517 H 0.267 v 1.504 c 0,0.256 -0.136,0.397 -0.427,0.397 -0.305,0 -0.461,-0.243 -0.461,-0.514 v -1.387 h -0.654 v 3.424 h 0.654 V -0.228 C -0.359,-0.034 -0.218,0 0,0" /></g><path
           id="path4550"
           style="fill:#1a1a18;fill-opacity:1;fill-rule:nonzero;stroke:none"
           d="m 49.88,287.953 h 0.65 v -2.469 h -0.65 z m -0.054,0.616 c 0,0.203 0.165,0.378 0.368,0.378 0.214,0 0.379,-0.175 0.379,-0.383 0,-0.204 -0.165,-0.374 -0.373,-0.374 -0.209,0 -0.374,0.17 -0.374,0.379" /><g
           transform="translate(51.0724,286.6819)"
           id="g4552"><path
             id="path4554"
             style="fill:#1a1a18;fill-opacity:1;fill-rule:nonzero;stroke:none"
             d="m 0,0 c 0,0.771 0.403,1.325 1.194,1.325 0.465,0 0.926,-0.306 1.095,-0.807 L 1.659,0.281 C 1.577,0.553 1.411,0.732 1.159,0.732 0.82,0.732 0.684,0.402 0.684,0 c 0,-0.427 0.126,-0.708 0.485,-0.708 0.247,0 0.378,0.136 0.49,0.446 l 0.65,-0.237 C 2.091,-1.052 1.756,-1.29 1.179,-1.29 0.403,-1.29 0,-0.78 0,0" /></g><g
           transform="translate(53.8655,288.9178)"
           id="g4556"><path
             id="path4558"
             style="fill:#1a1a18;fill-opacity:1;fill-rule:nonzero;stroke:none"
             d="m 0,0 h 0.65 v -2.517 c 0,-0.262 0.043,-0.325 0.184,-0.335 0.083,-0.004 0.15,0 0.243,0.025 L 1.14,-3.4 C 0.912,-3.458 0.693,-3.497 0.539,-3.497 0.379,-3.497 0,-3.443 0,-2.871 V 0" /></g><g
           transform="translate(55.9372,286.9878)"
           id="g4560"><path
             id="path4562"
             style="fill:#1a1a18;fill-opacity:1;fill-rule:nonzero;stroke:none"
             d="M 0,0 H 0.994 C 0.979,0.243 0.736,0.461 0.494,0.461 0.247,0.461 0.039,0.266 0,0 M 1.158,-0.723 1.551,-1.15 C 1.237,-1.436 1.027,-1.557 0.582,-1.557 c -0.762,0 -1.227,0.562 -1.227,1.314 0,0.669 0.431,1.256 1.096,1.256 0.722,0 1.169,-0.538 1.169,-1.344 V -0.5 H 0 c 0.014,-0.281 0.272,-0.485 0.596,-0.485 0.184,0 0.286,0.03 0.562,0.262" /></g><g
           transform="translate(58.9632,287.0361)"
           id="g4564"><path
             id="path4566"
             style="fill:#1a1a18;fill-opacity:1;fill-rule:nonzero;stroke:none"
             d="m 0,0 0.407,-0.058 c 0.432,-0.059 0.689,-0.359 0.689,-0.743 0,-0.494 -0.412,-0.838 -0.999,-0.838 -0.509,0 -0.854,0.126 -1.179,0.451 l 0.485,0.426 c 0.199,-0.203 0.422,-0.32 0.66,-0.32 0.194,0 0.349,0.083 0.349,0.209 0,0.101 -0.102,0.199 -0.306,0.238 l -0.426,0.082 c -0.379,0.073 -0.602,0.359 -0.602,0.694 0,0.494 0.383,0.809 1.014,0.809 0.344,0 0.636,-0.058 0.975,-0.363 L 0.649,0.145 C 0.48,0.345 0.301,0.407 0.077,0.407 -0.112,0.407 -0.243,0.301 -0.243,0.179 -0.243,0.097 -0.199,0.024 0,0" /></g></g></g></g></svg>